<?xml version="1.0" encoding="UTF-8"?>
<svg version="1.1" viewBox="0 0 1600 568" width="1280" height="1280" xmlns="http://www.w3.org/2000/svg">
<path transform="translate(0)" d="m0 0h1600v568h-1600v-568z" fill="#FAFCFE"/>
<path transform="translate(897 181)" d="m0 0c1.61-0.00387 1.61-0.00387 3.25-0.00781 2.75 0.133 2.75 0.133 4.75 1.13 2.53 0.093 5.03 0.125 7.56 0.112 0.793-4.45e-5 1.59-8.91e-5 2.4-1.35e-4 2.69-0.00137 5.37-0.00995 8.06-0.0184 1.93-0.00243 3.87-0.0044 5.8-0.00596 4.22-0.00439 8.44-0.012 12.7-0.022 6.86-0.0163 13.7-0.0257 20.6-0.0344 9.96-0.0131 19.9-0.0295 29.9-0.0476 15.7-0.0282 31.5-0.0449 47.2-0.0595 2.68-0.00254 5.36-0.00511 8.04-0.00768 0.667-6.4e-4 1.33-0.00128 2.02-0.00194 1.35-0.0013 2.7-0.0026 4.06-0.00389 1.36-0.0013 2.71-0.0026 4.07-0.0039 16-0.0153 32-0.0324 48-0.0509 0.701-8.06e-4 1.4-0.00161 2.12-0.00244 22.7-0.0262 45.4-0.0629 68.1-0.104 24-0.0433 48-0.0716 72-0.085 14.4-0.0086 28.8-0.0297 43.1-0.0666 9.86-0.0243 19.7-0.034 29.6-0.0322 5.69 5.78e-4 11.4-0.0054 17.1-0.0289 5.21-0.0214 10.4-0.0242 15.6-0.0124 1.88 9.96e-4 3.77-0.00477 5.65-0.018 11.2-0.0746 19.9 0.315 29.5 6.62 6.45 6.74 10.3 14.4 11.1 23.8-0.333 11.5-7.8 22.1-13.5 31.7-0.577 0.972-1.15 1.94-1.75 2.95-3.56 5.99-7.15 12-10.7 17.9-3.02 5.03-5.95 10.1-8.88 15.2-3.64 6.31-7.37 12.6-11.2 18.7-3.55 5.75-6.94 11.6-10.4 17.4-3.44 5.83-6.89 11.7-10.4 17.4-2.24 3.71-4.44 7.45-6.62 11.2-15.8 27.1-32.5 47.7-64 56.9-14.5 3.71-30 2.88-44.9 2.87-2.09 0.00331-4.19 0.00703-6.28 0.0111-5.71 0.00994-11.4 0.0137-17.1 0.0164-6.18 0.00393-12.4 0.0135-18.5 0.0222-14.2 0.0188-28.4 0.029-42.6 0.0375-7.02 0.00422-14 0.00944-21 0.0147-24 0.0179-48.1 0.0329-72.1 0.0403-1.51 4.75e-4 -3.01 9.51e-4 -4.52 0.00143-0.747 2.36e-4 -1.49 4.73e-4 -2.26 7.16e-4 -3.78 0.0012-7.56 0.00242-11.3 0.00364-0.751 2.4e-4 -1.5 4.8e-4 -2.27 7.28e-4 -24.4 0.0079-48.7 0.0314-73.1 0.0638-25.8 0.0343-51.6 0.054-77.4 0.0573-2.83 4.18e-4 -5.66 8.97e-4 -8.49 0.00142-0.697 1.23e-4 -1.39 2.46e-4 -2.11 3.73e-4 -11.2 0.00233-22.4 0.018-33.6 0.0385-11.3 0.0203-22.5 0.0254-33.8 0.0162-6.1-0.00455-12.2-0.00261-18.3 0.0168-5.58 0.0176-11.2 0.0167-16.7 0.0011-2.02-0.00238-4.04 0.00199-6.06 0.0138-12.8 0.0702-23.1-0.398-33.5-8.66-6.47-6.54-8.97-13.5-8.95-22.5-0.00387-1.72-0.00387-1.72-0.00781-3.48 0.133-2.9 0.133-2.9 1.13-4.9-1.73 0.312-3.46 0.625-5.19 0.938-0.963 0.174-1.93 0.348-2.92 0.527-1.8 0.332-3.59 0.69-5.38 1.09-10.9 1.94-22 0.554-31.4-5.36-7.75-5.65-10.9-11.9-12.7-21.2-0.572-5.27-0.575-10.5-0.555-15.8-0.00387-1.05-0.00773-2.1-0.0117-3.18 0.00129-1 0.00258-2 0.00391-3.03 0.00113-0.909 0.00226-1.82 0.00342-2.75 0.129-2.23 0.129-2.23 1.13-4.23 0.124-2.08 0.176-4.17 0.188-6.25 0.0213-1.68 0.0213-1.68 0.043-3.39-0.236-3.44-1-6.15-2.23-9.36-0.699 0.0348-1.4 0.0696-2.12 0.105-0.91 0.0271-1.82 0.0541-2.76 0.082-0.905 0.0348-1.81 0.0696-2.74 0.105-1.18-0.145-1.18-0.145-2.38-0.293-2.04-3.06-2.25-3.71-2.27-7.16-0.00258-0.793-0.00516-1.59-0.00781-2.4 0.00773-0.824 0.0155-1.65 0.0234-2.5-0.00773-0.828-0.0155-1.66-0.0234-2.51 0.00258-0.792 0.00516-1.58 0.00781-2.4 0.00226-0.725 0.00451-1.45 0.00684-2.2 0.259-1.83 0.259-1.83 2.26-3.83 2.6-0.414 2.6-0.414 5.62-0.625 1.5-0.112 1.5-0.112 3.04-0.227 1.16-0.0735 1.16-0.0735 2.34-0.148-0.0174-1.59-0.0174-1.59-0.0352-3.21-0.00938-1.39-0.0185-2.78-0.0273-4.16-0.00838-0.699-0.0168-1.4-0.0254-2.12-0.0254-5.28-0.0254-5.28 1.09-7.51 0.308-2.33 0.509-4.66 0.719-7 0.281-2 0.281-2 1.28-3 2.13-0.1 4.27-0.131 6.41-0.133 1.3-0.00129 2.6-0.00258 3.94-0.00391l2.06 0.00635c2.08 0.00535 4.16 5.43e-5 6.24-0.00635 1.95 0.00193 1.95 0.00193 3.94 0.00391 1.2 0.00113 2.41 0.00226 3.65 0.00342 2.76 0.129 2.76 0.129 3.76 1.13 0.158 1.92 0.251 3.85 0.316 5.79 0.0419 1.17 0.0838 2.34 0.127 3.54 0.0393 1.23 0.0786 2.46 0.119 3.73 0.0432 1.24 0.0864 2.47 0.131 3.74 0.106 3.06 0.208 6.13 0.307 9.19 1.08 0.0376 1.08 0.0376 2.19 0.0759 3.25 0.116 6.5 0.238 9.75 0.362 1.14 0.0393 2.27 0.0786 3.44 0.119 1.08 0.0419 2.16 0.0838 3.27 0.127 1 0.0367 2 0.0733 3.03 0.111 2.32 0.205 2.32 0.205 3.32 1.21 0.0869 1.56 0.107 3.13 0.0977 4.69-0.00483 1.42-0.00483 1.42-0.00977 2.86-0.0126 1.49-0.0126 1.49-0.0254 3.01-0.00451 0.997-0.00902 1.99-0.0137 3.02-0.0118 2.47-0.0283 4.94-0.0488 7.42-0.722 0.0251-1.44 0.0501-2.19 0.0759-3.25 0.116-6.5 0.238-9.75 0.362-1.14 0.0393-2.27 0.0786-3.44 0.119-1.08 0.0419-2.16 0.0838-3.27 0.127-1 0.0367-2 0.0733-3.03 0.111-2.28-0.048-2.28-0.048-3.32 1.21-0.138 3.06-0.213 6.09-0.238 9.14-0.00807 0.921-0.0161 1.84-0.0245 2.79-0.0139 1.95-0.0246 3.91-0.0324 5.86-0.0172 2.99-0.0611 5.98-0.105 8.97-0.0101 1.9-0.0186 3.79-0.0254 5.69-0.0175 0.895-0.035 1.79-0.0531 2.71-0.00858 5.04-0.00858 5.04 2.31 9.4 3.01 1.98 5.16 1.86 8.73 1.74 1.14-0.0245 2.27-0.049 3.44-0.0742 3.05-0.122 3.05-0.122 6-1.24 2.46 3.69 3.63 6.93 4.56 11.2 0.417 1.93 0.882 3.85 1.44 5.75 0.66 0.33 1.32 0.66 2 1v-2c0.563-0.54 1.13-1.08 1.71-1.64 2.98-3.07 4.87-6.47 6.98-10.2 0.897-1.55 1.79-3.1 2.69-4.65 0.445-0.772 0.89-1.54 1.35-2.34 1.77-3.04 3.58-6.06 5.4-9.07 4.3-7.15 8.56-14.3 12.8-21.5 0.351-0.593 0.702-1.19 1.06-1.8 4.42-7.45 8.82-14.9 13.2-22.4 4.41-7.5 8.92-15 13.4-22.4 3.3-5.5 6.56-11 9.71-16.6 2.85-5.03 5.82-9.97 8.88-14.9 0.405-0.651 0.809-1.3 1.23-1.97 12.4-19.7 31.5-34.7 54.3-40.5 3.43-0.746 6.86-1.43 10.3-2.07 0.75-0.176 1.5-0.351 2.27-0.532 3.21-0.551 6.23-0.562 9.49-0.53 1.92 0.0116 1.92 0.0116 3.89 0.0234 1.35 0.0124 2.69 0.0255 4.04 0.0391 2.65 0.0266 5.3 0.0465 7.95 0.0625 1.17 0.0116 2.35 0.0232 3.55 0.0352 3.77-0.131 6.86-1.23 10.8-1.22z" fill="#8E58FE"/>
<path transform="translate(832 232)" d="m0 0c3.02 0.145 3.02 0.145 5.02 2.14 0.278 2.06 0.278 2.06 0.319 4.63 0.0199 0.961 0.0397 1.92 0.0602 2.91 0.0116 1.04 0.0231 2.08 0.035 3.15 0.0194 1.06 0.0387 2.13 0.0587 3.22 0.0599 3.4 0.106 6.81 0.152 10.2 0.0382 2.3 0.0772 4.61 0.117 6.91 0.0962 5.65 0.181 11.3 0.258 17 2.07 0.215 2.07 0.215 3.48-1.25 3.63-3.72 7.12-7.52 10.5-11.5 1.95-2.22 3.95-4.4 5.96-6.57 4.86-5.24 9.48-10.6 14-16.2 1.92-2.37 3.84-4.72 5.81-7.05 0.766-0.913 0.766-0.913 1.55-1.84 4.11-4 7.53-5.03 13.2-5.02 1.23 6.45e-4 2.47 0.00129 3.74 0.00195 1.92 0.0242 1.92 0.0242 3.88 0.0488 1.93-0.00483 1.93-0.00483 3.9-0.00977 9.57 0.0551 9.57 0.0551 13 2.32-1.6 3.86-4.22 6.58-7.06 9.56-3.72 3.97-7.28 8-10.7 12.2-3.01 3.74-6.11 7.17-9.56 10.5-2.51 2.5-4.82 5.15-7.11 7.84-1.31 1.53-2.69 3.01-4.08 4.47-1.77 2.3-1.77 2.3-1.35 5.14 1 3.82 2.58 6.17 4.91 9.36 0.824 1.15 1.65 2.29 2.47 3.44 0.415 0.574 0.83 1.15 1.26 1.74 1.82 2.55 3.55 5.15 5.27 7.76 0.656 0.989 1.31 1.98 1.99 3 0.643 0.971 1.29 1.94 1.95 2.94 1.91 2.86 3.82 5.72 5.73 8.59 1.75 2.63 3.49 5.26 5.23 7.89 0.522 0.788 1.04 1.58 1.58 2.39 1.02 1.55 2.05 3.09 3.07 4.64 2.91 4.39 5.95 8.58 9.28 12.7 1.11 1.83 1.11 1.83 1.11 5.83-4.4 2.2-10.3 1.27-15.1 1.31-1.82 0.0435-1.82 0.0435-3.67 0.0879-6.81 0.0482-12.8 0.0865-18.2-4.4-2.31-2.49-4.16-5.16-6-8-0.513-0.759-1.03-1.52-1.55-2.3-1.5-2.22-2.97-4.46-4.45-6.7-0.753-1.11-1.51-2.22-2.27-3.33-4.81-7.08-9.3-14.4-13.7-21.7-4.47 0.489-6.45 1.93-9.56 5.12-0.744 0.745-1.49 1.49-2.25 2.26-5.27 6.31-6.77 10.4-6.37 18.5 0.217 6.17-0.0135 12-0.812 18.1-4.11 0.0247-8.22 0.0428-12.3 0.0549-1.4 0.00504-2.8 0.0119-4.2 0.0205-2.01 0.0121-4.02 0.0173-6.02 0.0222-1.21 0.00524-2.42 0.0105-3.67 0.0159-2.78-0.114-2.78-0.114-3.78-1.11-0.125-2.76-0.186-5.5-0.205-8.27-0.0099-0.869-0.0198-1.74-0.03-2.63-0.0318-2.9-0.0565-5.8-0.0811-8.7-0.0206-2.03-0.0416-4.05-0.063-6.08-0.0441-4.27-0.085-8.54-0.123-12.8-0.058-6.46-0.124-12.9-0.191-19.4-0.0931-9.09-0.171-18.2-0.238-27.3-0.0417-5.36-0.109-10.7-0.201-16.1-0.0276-2.19-0.0551-4.38-0.0825-6.56-0.0235-0.936-0.047-1.87-0.0712-2.84-0.0531-5.94-0.0531-5.94 1.68-8.07 2.03-1.63 3.23-1.71 5.81-1.8 1.22-0.0532 1.22-0.0532 2.47-0.107 0.849-0.0226 1.7-0.0451 2.57-0.0684 0.834-0.0342 1.67-0.0683 2.53-0.104 3.74-0.144 7.47-0.218 11.2-0.354z" fill="#FAFDFF"/>
<path transform="translate(447 228)" d="m0 0c1.8-0.00387 1.8-0.00387 3.63-0.00781 1.26 0.00773 2.51 0.0155 3.81 0.0234 1.88-0.0116 1.88-0.0116 3.8-0.0234 1.2 0.00258 2.4 0.00516 3.63 0.00781 1.1 0.00226 2.21 0.00451 3.34 0.00684 2.79 0.259 2.79 0.259 5.79 2.26 0.385 2.46 0.385 2.46 0.401 5.61 0.02 1.76 0.02 1.76 0.0404 3.56 1.16e-4 1.28 2.32e-4 2.55 3.51e-4 3.87 0.0202 2 0.0404 4 0.0612 6.01 0.0257 2.81 0.0382 5.63 0.0504 8.44 0.0218 4.9 0.0532 9.79 0.101 14.7 0.0243 2.61 0.0392 5.21 0.0436 7.82 0.0542 6.35 0.403 11.9 2.3 18 0.694-0.695 1.39-1.39 2.1-2.11 1.99-1.99 3.98-3.97 5.98-5.95 6.72-6.66 13.4-13.3 19.1-20.8 2.61-3.06 4.65-4.01 8.67-4.42 3.53-0.049 7.06-0.0808 10.6-0.0845 1.23-0.0245 2.46-0.049 3.72-0.0742 1.78-0.0058 1.78-0.0058 3.59-0.0117 1.62-0.0123 1.62-0.0123 3.27-0.0249 3.64 0.593 5.32 2 7.98 4.49-0.495 0.99-0.495 0.99-1 2h-2c-0.319 0.812-0.319 0.812-0.645 1.64-1.85 3.21-4.4 5.56-7.04 8.11-4.07 3.99-7.96 8.02-11.6 12.4-2.53 2.86-5.29 5.48-8.06 8.12-1.83 1.78-1.83 1.78-2.6 4.76 4.23 10.5 11.7 20.3 17.8 29.8 3.87 5.98 7.52 12.1 11.1 18.2 0.497 0.838 0.995 1.68 1.51 2.54 0.46 0.791 0.921 1.58 1.39 2.4 0.624 1.07 0.624 1.07 1.26 2.15 0.899 1.91 0.899 1.91 0.899 4.91-4.89 0.124-9.78 0.214-14.7 0.275-1.66 0.0251-3.33 0.0592-4.99 0.103-2.4 0.0609-4.79 0.0891-7.19 0.111-1.11 0.0387-1.11 0.0387-2.24 0.0782-3.79 0.00204-5.65-0.372-8.68-2.7-2.29-2.95-4.16-5.87-5.96-9.15-0.323-0.585-0.647-1.17-0.98-1.77-0.676-1.23-1.35-2.46-2.02-3.69-1.02-1.88-2.06-3.76-3.09-5.63-5.01-9.11-5.01-9.11-6.18-12.6h-5c-0.495 1.49-0.495 1.49-1 3h-2c-0.289 0.577-0.577 1.15-0.875 1.75-0.683 1.37-1.4 2.72-2.17 4.04-1.17 2.72-1.28 4.9-1.37 7.85-0.0387 1.07-0.0773 2.14-0.117 3.24-0.0464 1.67-0.0464 1.67-0.0938 3.37-0.0387 1.13-0.0773 2.25-0.117 3.41-0.0942 2.78-0.18 5.56-0.258 8.34-4.4 0.0247-8.79 0.0428-13.2 0.0549-1.5 0.00504-2.99 0.0119-4.49 0.0205-2.15 0.0121-4.29 0.0178-6.44 0.0222-1.29 0.00524-2.59 0.0105-3.92 0.0159-2.96-0.114-2.96-0.114-3.96-1.11-0.101-1.74-0.131-3.49-0.134-5.23-0.00426-1.13-0.00853-2.27-0.0129-3.44 4.53e-4 -1.26 9.06e-4 -2.51 0.00137-3.8-0.00336-1.31-0.00672-2.63-0.0102-3.98-0.00886-3.61-0.0112-7.23-0.0118-10.8-9.47e-4 -3.01-0.00462-6.02-0.00817-9.04-0.00815-7.1-0.0106-14.2-0.00987-21.3 6.01e-4 -7.34-0.00995-14.7-0.0257-22-0.0131-6.29-0.0184-12.6-0.0178-18.9 2.56e-4 -3.76-0.00263-7.52-0.0132-11.3-0.0114-4.19-0.00695-8.39-8.95e-4 -12.6-0.00562-1.25-0.0112-2.51-0.017-3.8 0.00419-1.14 0.00839-2.27 0.0127-3.45-5.45e-4 -0.992-0.00109-1.98-0.00165-3.01 0.544-5.14 3.92-4.61 8.24-4.62z" fill="#000100"/>
<path transform="translate(608 267)" d="m0 0c12.1 4.07 19.9 10.4 26.3 21.3 0.99 0.66 1.98 1.32 3 2 0.303 1.85 0.587 3.71 0.754 5.59 0.275 2.7 0.744 5.31 1.25 7.98 1.36 7.36 2 13.8 2 21.4-34.6 0.495-34.6 0.495-70 1 3.9 7.8 6.19 11.5 13.7 15.4 9.55 1.8 19.2 1.43 27.5-4 0.612-0.446 1.22-0.892 1.86-1.35 2.56-1.34 4.11-1.45 6.96-1.02 1.84 1.54 1.84 1.54 3.5 3.62 0.588 0.73 1.18 1.46 1.78 2.21 0.567 0.714 1.13 1.43 1.72 2.16 0.789 0.855 0.789 0.855 1.59 1.73 1.41 1.52 1.41 1.52 3.41 4.27-0.406 4.43-3.03 6.46-6.28 9.19-10.8 7.22-22.6 9-35.4 9.06-1.03 0.0206-2.05 0.0412-3.11 0.0625-15 0.0759-27-4.88-38-15-9.4-9.63-13.2-22-13.5-35.3 0.339-14.8 5.19-28 15.7-38.7 8.09-7.38 19-13.7 30.3-13.6 1.07 0.0825 2.14 0.165 3.25 0.25 5.99-2.99 15.6-0.055 21.7 1.69z" fill="#000100"/>
<path transform="translate(1267,268)" d="m0 0c7.42 6.82 11.6 16.1 12.2 26.1 0.0651 3.74 0.0687 7.47 0.0482 11.2-0.00119 1.38-0.00164 2.75-0.00139 4.13-0.00156 2.87-0.00978 5.73-0.0233 8.6-0.0171 3.68-0.0208 7.36-0.0201 11-2.71e-4 2.83-0.00574 5.67-0.013 8.5-0.00319 1.36-0.00515 2.72-0.00589 4.08-0.00216 1.89-0.0117 3.78-0.0216 5.67-0.00381 1.08-0.00762 2.15-0.0116 3.26-0.134 2.42-0.134 2.42-1.13 3.42-4.64 0.254-9.29 0.185-13.9 0.188-1.31 0.0122-2.63 0.0245-3.98 0.0371-1.25 0.00193-2.5 0.00387-3.79 0.00586-1.73 0.00616-1.73 0.00616-3.5 0.0125-2.78-0.243-2.78-0.243-4.78-2.24-0.697-1.32-1.37-2.65-2-4-0.773 0.482-1.55 0.964-2.34 1.46-10.9 6.59-17.9 8.64-30.7 6.54-10.1-2.75-17.2-8.09-22.9-16.9-3.29-6.27-3.31-14.8-1.48-21.5 3.78-8.25 10.1-12.9 18.2-16.6 9.41-3.13 18.4-3.3 28.3-3.17 1.35 0.0101 2.7 0.0192 4.05 0.0273 3.27 0.0234 6.55 0.0562 9.82 0.0977-0.616-1.62-1.24-3.23-1.87-4.84-0.347-0.899-0.693-1.8-1.05-2.72-1.5-3.36-2.81-4.72-6.08-6.43-12.6-4.27-24.9 1.31-37 5-0.33-0.99-0.66-1.98-1-3h-2c-1.65-4.62-3.3-9.24-5-14 4.51-4.51 4.51-4.51 8.42-5.85 0.853-0.293 1.71-0.586 2.59-0.888 1.36-0.438 1.36-0.438 2.74-0.885 0.933-0.306 1.87-0.611 2.83-0.926 18.2-5.73 39.4-7.82 55.4 4.55z" fill="#FAFDFF"/>
<path transform="translate(1e3 270)" d="m0 0c8.03 9.64 8.17 19.1 8.05 31.1-0.0056 1.58-0.00987 3.16-0.0129 4.74-0.0114 4.14-0.0408 8.27-0.0741 12.4-0.0308 4.23-0.0444 8.46-0.0595 12.7-0.0321 8.28-0.0832 16.6-0.146 24.8-1.9 0.0174-1.9 0.0174-3.84 0.0352-0.712 0.00653-1.42 0.0131-2.16 0.0198-2.01-0.0549-2.01-0.0549-4.63-0.617-2.44-0.612-2.44-0.612-5.12 0.188-4.56 0.526-8.04-0.97-12.2-2.62-0.33-1.98-0.66-3.96-1-6-2.71 1.32-5.4 2.64-7.98 4.21-8.7 5.25-17.4 8-27.5 5.57-9.36-2.9-18.3-9.03-23.1-17.8-3.13-7.43-3.21-15.5-0.25-23 4.96-8.2 10.6-12.8 19.8-16 8.9-2.11 17.6-2.25 26.8-2.12 1.28 0.00902 2.56 0.018 3.88 0.0273 3.12 0.0233 6.24 0.056 9.37 0.0977-0.612-1.44-1.23-2.88-1.85-4.31-0.516-1.2-0.516-1.2-1.04-2.43-1.55-3.16-3.31-5.13-6.11-7.26-7.64-2.36-16.5-1.49-24 1-2.06 0.606-4.12 1.19-6.19 1.75-1 0.284-2.01 0.567-3.04 0.859-2.77 0.391-2.77 0.391-4.96-0.168-2.58-2.05-3.39-4.22-4.62-7.25-0.44-1.04-0.879-2.08-1.33-3.14-0.931-3.31-1.27-4.9 0.145-8.04 2.63-1.44 2.63-1.44 6.12-2.56 0.934-0.304 0.934-0.304 1.89-0.614 1.99-0.635 3.99-1.23 5.99-1.82 0.967-0.293 0.967-0.293 1.95-0.591 18.8-5.63 41.9-8.14 57.3 6.77z" fill="#FAFDFF"/>
<path transform="translate(240 235)" d="m0 0c1.2-0.00129 2.41-0.00258 3.64-0.00391 1.26 0.00387 2.52 0.00773 3.82 0.0117 1.89-0.0058 1.89-0.0058 3.82-0.0117 1.8 0.00193 1.8 0.00193 3.64 0.00391 1.11 0.00113 2.22 0.00226 3.36 0.00342 2.67 0.129 2.67 0.129 4.67 1.13 2.84 0.0983 5.66 0.139 8.5 0.125 0.785 0.00387 1.57 0.00773 2.38 0.0117 4.19 0.101 4.19 0.101 8.12-1.14 1.69-0.0953 3.37-0.13 5.06-0.125 1.35-0.00387 1.35-0.00387 2.72-0.00781 2.21 0.133 2.21 0.133 3.21 1.13 0.271 1.89 0.465 3.79 0.625 5.69 0.0954 1.04 0.191 2.07 0.289 3.14 0.303 6.06-0.415 12.1-0.914 18.2-1.12 0.0251-2.23 0.0501-3.38 0.0759-4.12 0.0939-8.25 0.194-12.4 0.296-1.79 0.0434-3.58 0.0851-5.36 0.125-2.56 0.0576-5.13 0.121-7.69 0.186-0.804 0.0167-1.61 0.0334-2.44 0.0506-3.68-0.242-3.68-0.242-6.75 1.27-0.125 3.13-0.186 6.25-0.205 9.39-0.0099 0.985-0.0198 1.97-0.03 2.99-0.0317 3.27-0.0564 6.55-0.0811 9.82-0.0206 2.26-0.0416 4.53-0.063 6.79-0.0553 5.97-0.105 11.9-0.153 17.9-0.0501 6.09-0.106 12.2-0.161 18.3-0.108 12-0.209 23.9-0.307 35.9-4.38 0.0741-8.76 0.129-13.1 0.165-1.49 0.0151-2.98 0.0356-4.47 0.0615-2.14 0.0363-4.28 0.0534-6.42 0.0667-1.29 0.0157-2.58 0.0314-3.9 0.0476-1.01-0.112-2.03-0.225-3.07-0.341-2.04-3.06-2.25-3.68-2.28-7.12-0.0112-0.837-0.0223-1.67-0.0338-2.54-0.00216-0.915-0.00432-1.83-0.00655-2.77-0.01-0.966-0.0201-1.93-0.0304-2.93-0.0309-3.2-0.0479-6.4-0.0648-9.59-0.0187-2.22-0.0383-4.43-0.0587-6.65-0.0514-5.83-0.091-11.7-0.128-17.5-0.04-5.95-0.0911-11.9-0.141-17.9-0.0969-11.7-0.181-23.4-0.258-35-1.57-0.0219-1.57-0.0219-3.17-0.0442-3.87-0.058-7.75-0.135-11.6-0.218-1.68-0.0333-3.35-0.0613-5.03-0.084-2.41-0.0335-4.82-0.0858-7.23-0.142-0.75-0.00639-1.5-0.0128-2.27-0.0194-5.19-0.147-5.19-0.147-7.65-1.89-1.41-2.2-1.42-3.79-1.43-6.39-0.00387-0.924-0.00773-1.85-0.0117-2.8 0.0116-0.963 0.0232-1.93 0.0352-2.92-0.0116-0.963-0.0232-1.93-0.0352-2.92 0.00387-0.924 0.00773-1.85 0.0117-2.8 0.00338-0.845 0.00677-1.69 0.0103-2.56 0.484-2.77 1.19-3.5 3.39-5.22 2.13-0.354 2.13-0.354 4.62-0.325 0.934 0.00345 1.87 0.00691 2.83 0.0105 1.01 0.0186 2.01 0.0372 3.05 0.0564 1.55 0.00992 1.55 0.00992 3.13 0.0201 3.31 0.0234 6.62 0.0672 9.92 0.113 3.31 0.035 6.62 0.0658 9.94 0.0913 2.06 0.017 4.12 0.0402 6.19 0.07 0.931 0.00976 1.86 0.0195 2.82 0.0296 0.821 0.0113 1.64 0.0225 2.49 0.0341 3.46-0.173 6.34-1.23 10-1.23z" fill="#000100"/>
<path transform="translate(1096 261)" d="m0 0c8.88 5.13 16.5 12.1 19.8 22 0.303 2.83 0.508 5.66 0.719 8.5 0.136 2.49 0.136 2.49 1.28 4.5 0.0949 1.53 0.128 3.05 0.129 4.58 0.00315 0.952 0.0063 1.9 0.00955 2.88-0.00304 1.55-0.00304 1.55-0.00613 3.13 9.57e-4 1.06 0.00191 2.13 0.0029 3.22 6.82e-4 2.26-0.00117 4.51-0.00534 6.77-0.00531 3.43-7.41e-5 6.86 0.00635 10.3-6.62e-4 2.19-0.00194 4.39-0.00391 6.58 0.00202 1.02 0.00405 2.04 0.00613 3.09-0.0191 5.89-0.378 11.6-1.14 17.4-3.95 0.0741-7.9 0.129-11.9 0.165-2.01 0.0225-4.01 0.0606-6.02 0.0989-1.26 0.00967-2.51 0.0193-3.81 0.0293-1.16 0.0157-2.33 0.0314-3.52 0.0476-0.923-0.112-1.85-0.225-2.8-0.341-2.45-3.67-2.21-6.33-2.11-10.6 0.0188-1.54 0.0363-3.09 0.0527-4.63 0.0109-0.796 0.0218-1.59 0.033-2.41 0.0598-6.07-0.0563-12.1-0.184-18.2-0.0286-1.53-0.0496-3.05-0.0635-4.58-0.0935-9.83-0.405-17-6.62-25.1-3.53-2.58-6.75-2.2-11-2.05-5.73 0.941-9.86 3.77-13.5 8.22-4.38 6.92-3.78 15.4-3.91 23.3-0.0208 1.03-0.0416 2.07-0.063 3.13-0.0651 3.28-0.124 6.56-0.183 9.84-0.0432 2.23-0.0868 4.46-0.131 6.7-0.107 5.45-0.209 10.9-0.307 16.4-0.771 0.0606-1.54 0.121-2.34 0.184-1 0.0838-2.01 0.168-3.04 0.254-0.998 0.0812-2 0.162-3.02 0.246-2.58 0.166-2.58 0.166-4.6 1.32-2.17 0.203-2.17 0.203-4.75 0.25-0.84 0.0258-1.68 0.0516-2.55 0.0781-3.35-0.407-5.73-1.77-8.7-3.33-0.0463-11.7-0.0818-23.4-0.104-35.1-0.0105-5.43-0.0246-10.9-0.0473-16.3-0.0217-5.24-0.0337-10.5-0.0389-15.7-0.00371-2-0.0109-4-0.0217-6.01-0.0144-2.8-0.0165-5.59-0.0156-8.39-0.00719-0.834-0.0144-1.67-0.0218-2.53 0.0207-5.73 0.0207-5.73 2.25-7.96 2.58-0.259 2.58-0.259 5.81-0.266 1.16-0.00258 2.32-0.00516 3.51-0.00781 1.21 0.00773 2.43 0.0155 3.68 0.0234 1.21-0.00773 2.43-0.0155 3.68-0.0234 1.74 0.00387 1.74 0.00387 3.51 0.00781 1.07 0.00226 2.13 0.00451 3.23 0.00684 2.58 0.259 2.58 0.259 4.58 2.26 0.27 2.69 0.0874 5.29 0 8 4.53 0 4.9-0.422 8.12-3.25 9.74-7.97 24.2-12.3 36.1-6.75z" fill="#FAFDFF"/>
<path transform="translate(418 272)" d="m0 0c5.66 3.66 10.3 6.91 13.5 13 0.0859 2.36 0.0859 2.36-1 5-2.38 2.09-5.03 3.65-7.75 5.25-0.717 0.446-1.43 0.892-2.17 1.35-7.26 4.41-7.26 4.41-11.1 4.4-2.21-1.36-2.21-1.36-4.38-3.31-5.34-4.4-9.62-5.95-16.6-5.62-6.1 0.816-10.8 3.05-14.6 7.91-5.28 8.09-5.62 16.7-3.85 26.1 1.75 5.82 4.11 9.88 9.45 12.9 3.92 1.27 7.55 1.53 11.7 1.59 0.725 0.0112 1.45 0.0224 2.2 0.0339 5.1-0.137 8.05-1.38 12.1-4.66 1.02-1.11 1.02-1.11 2.06-2.25 1.94-1.75 1.94-1.75 4.05-2.16 4.33 0.616 7.39 2.85 11 5.22 0.715 0.452 1.43 0.904 2.17 1.37 3.22 2.06 6.06 4.03 8.71 6.82-3.96 9.37-12.8 15.3-21.8 19.3-14.3 5.16-31.9 5.18-46.2-0.312-13.5-6.83-22.8-15.5-28-29.8-4.4-15.2-2.31-30.2 4.97-44.2 7.5-12.7 18.8-20.4 32.9-24.5 14.4-3.09 30-0.735 42.6 6.54z" fill="#000100"/>
<path transform="translate(659 242)" d="m0 0c1.3-0.00129 2.6-0.00258 3.94-0.00391 1.02 0.00314 1.02 0.00314 2.06 0.00635 2.08 0.00535 4.16 5.43e-5 6.24-0.00635 1.95 0.00193 1.95 0.00193 3.94 0.00391 1.2 0.00113 2.41 0.00226 3.65 0.00342 2.76 0.129 2.76 0.129 3.76 1.13 0.158 1.92 0.251 3.85 0.316 5.79 0.0419 1.17 0.0838 2.34 0.127 3.54 0.0393 1.23 0.0786 2.46 0.119 3.73 0.0432 1.24 0.0864 2.47 0.131 3.74 0.106 3.06 0.208 6.13 0.307 9.19 0.722 0.0251 1.44 0.0501 2.19 0.0759 3.25 0.116 6.5 0.238 9.75 0.362 1.14 0.0393 2.27 0.0786 3.44 0.119 1.62 0.0628 1.62 0.0628 3.27 0.127 1 0.0367 2 0.0733 3.03 0.111 2.32 0.205 2.32 0.205 3.32 1.21 0.0869 1.56 0.107 3.13 0.0977 4.69-0.00483 1.42-0.00483 1.42-0.00977 2.86-0.0126 1.49-0.0126 1.49-0.0254 3.01-0.00451 0.997-0.00902 1.99-0.0137 3.02-0.0118 2.47-0.0283 4.94-0.0488 7.42-0.722 0.0251-1.44 0.0501-2.19 0.0759-3.25 0.116-6.5 0.238-9.75 0.362-1.14 0.0393-2.27 0.0786-3.44 0.119-1.08 0.0419-2.16 0.0838-3.27 0.127-1.5 0.055-1.5 0.055-3.03 0.111-2.28-0.048-2.28-0.048-3.32 1.21-0.138 3.06-0.213 6.09-0.238 9.14-0.00807 0.921-0.0161 1.84-0.0245 2.79-0.0139 1.95-0.0246 3.91-0.0324 5.86-0.0172 2.99-0.0611 5.98-0.105 8.97-0.0101 1.9-0.0186 3.79-0.0254 5.69-0.0175 0.895-0.035 1.79-0.0531 2.71-0.00858 5.04-0.00858 5.04 2.31 9.4 3.01 1.98 5.16 1.86 8.73 1.74 1.14-0.0245 2.27-0.049 3.44-0.0742 3.05-0.122 3.05-0.122 6-1.24 2.3 3.53 3.7 6.73 4.75 10.8 0.263 0.976 0.526 1.95 0.797 2.96 0.562 4.01 0.0915 7.24-0.547 11.2-14.6 3.93-29.3 7.16-43.5-0.324-7.93-4.99-12.3-10.5-14.5-19.7-1.17-6.27-1.15-12.5-1.12-18.8-0.00387-1.05-0.00773-2.1-0.0117-3.18 0.00129-1 0.00258-2 0.00391-3.03 0.00113-0.909 0.00226-1.82 0.00342-2.75 0.129-2.23 0.129-2.23 1.13-4.23 0.124-2.08 0.176-4.17 0.188-6.25 0.0213-1.68 0.0213-1.68 0.043-3.39-0.236-3.44-1-6.15-2.23-9.36-0.699 0.0348-1.4 0.0696-2.12 0.105-0.91 0.0271-1.82 0.0541-2.76 0.082-0.905 0.0348-1.81 0.0696-2.74 0.105-1.18-0.145-1.18-0.145-2.38-0.293-2.04-3.06-2.25-3.71-2.27-7.16-0.00258-0.793-0.00516-1.59-0.00781-2.4 0.00773-0.824 0.0155-1.65 0.0234-2.5-0.00773-0.828-0.0155-1.66-0.0234-2.51 0.00258-0.792 0.00516-1.58 0.00781-2.4 0.00226-0.725 0.00451-1.45 0.00684-2.2 0.259-1.83 0.259-1.83 2.26-3.83 2.6-0.414 2.6-0.414 5.62-0.625 1-0.0748 2.01-0.15 3.04-0.227 1.16-0.0735 1.16-0.0735 2.34-0.148-0.0174-1.59-0.0174-1.59-0.0352-3.21-0.00938-1.39-0.0185-2.78-0.0273-4.16-0.00838-0.699-0.0168-1.4-0.0254-2.12-0.0254-5.28-0.0254-5.28 1.09-7.51 0.308-2.33 0.509-4.66 0.719-7 0.613-4.35 3.94-3.13 7.69-3.13z" fill="#000100"/>
<path transform="translate(1142 239)" d="m0 0c1.66 9.67e-4 1.66 9.67e-4 3.35 0.00195 1.73 0.0242 1.73 0.0242 3.5 0.0488 1.15-0.00322 2.31-0.00645 3.5-0.00977 8.6 0.0552 8.6 0.0552 12 2.32 0.325 2.02 0.325 2.02 0.258 4.46-0.0142 0.882-0.0284 1.76-0.043 2.67-0.0445 1.39-0.0445 1.39-0.0898 2.8-0.0434 1.82-0.0826 3.64-0.117 5.46-0.0365 1.21-0.0365 1.21-0.0737 2.45-0.031 2.33-0.031 2.33 1.07 5.14 0.595 0.0198 1.19 0.0396 1.8 0.0601 2.69 0.0951 5.38 0.205 8.07 0.315 0.937 0.0309 1.87 0.0619 2.84 0.0938 0.896 0.0387 1.79 0.0773 2.71 0.117 1.24 0.0471 1.24 0.0471 2.51 0.0952 2.06 0.319 2.06 0.319 4.06 2.32 0.145 2.91 0.186 5.72 0.125 8.62-0.00902 0.802-0.018 1.6-0.0273 2.43-0.0236 1.98-0.0595 3.96-0.0977 5.95-0.992 0.0376-0.992 0.0376-2 0.0759-2.98 0.116-5.96 0.238-8.93 0.362-1.04 0.0393-2.08 0.0786-3.15 0.119-0.989 0.0419-1.98 0.0838-3 0.127-1.37 0.055-1.37 0.055-2.78 0.111-2.12-0.0246-2.12-0.0246-3.13 1.21-0.114 2.84-0.164 5.65-0.168 8.49-0.00333 0.855-0.00666 1.71-0.0101 2.59-0.00507 1.81-0.00741 3.63-0.00725 5.44-0.00218 2.77-0.0203 5.54-0.0393 8.32-0.00294 1.76-0.00492 3.52-0.00586 5.28-0.00719 0.829-0.0144 1.66-0.0218 2.51-0.0606 5.5-0.0606 5.5 2.25 10.4 3.07 1.53 6.27 1.1 9.62 1.06 1.06-0.00677 1.06-0.00677 2.14-0.0137 1.74-0.0118 3.49-0.0297 5.23-0.0488l4 10c0.394 0.831 0.789 1.66 1.2 2.52 0.993 3.06 1.04 4.5-0.195 7.48-2.58 1.77-2.58 1.77-5.81 3.25-1.06 0.5-2.12 1-3.21 1.52-7.9 3.27-17.2 2.73-25.5 0.59-7.87-3.55-15.3-10.5-18.9-18.3-1.84-5.97-1.83-12-1.94-18.2-0.0208-0.968-0.0416-1.94-0.063-2.93-0.0651-3.08-0.124-6.15-0.183-9.23-0.0432-2.09-0.0868-4.18-0.131-6.28-0.107-5.12-0.208-10.2-0.307-15.3-0.699-0.049-1.4-0.098-2.12-0.148-0.91-0.0748-1.82-0.15-2.76-0.227-0.905-0.0696-1.81-0.139-2.74-0.211-2.38-0.414-2.38-0.414-4.38-2.41-0.266-3.19-0.266-3.19-0.25-7-0.00516-1.26-0.0103-2.52-0.0156-3.81 0.266-3.19 0.266-3.19 2.27-5.19 2.6-0.195 2.6-0.195 5.62-0.125 1.5 0.0271 1.5 0.0271 3.04 0.0547 0.771 0.0232 1.54 0.0464 2.34 0.0703-0.0157-0.711-0.0314-1.42-0.0476-2.16-0.0623-3.22-0.101-6.44-0.14-9.66-0.0251-1.12-0.0503-2.24-0.0762-3.39-0.0145-1.61-0.0145-1.61-0.0293-3.25-0.0157-0.99-0.0314-1.98-0.0476-3 0.341-2.54 0.341-2.54 1.51-4.37 2.57-1.64 4.46-1.55 7.49-1.54z" fill="#FAFDFF"/>
<path transform="translate(306 265)" d="m0 0c1.25 0.00516 2.5 0.0103 3.79 0.0156 1.31 0.0206 2.61 0.0412 3.96 0.0625 1.97 0.00773 1.97 0.00773 3.98 0.0156 9.74 0.0806 9.74 0.0806 10.9 1.23 1.03 5.48 1.11 10.8 1.02 16.3-0.00961 0.908-0.0192 1.82-0.0291 2.75-0.0328 2.98-0.0732 5.96-0.114 8.94-0.0243 2.08-0.0482 4.15-0.0715 6.23-0.0627 5.45-0.132 10.9-0.202 16.3-0.0708 5.56-0.136 11.1-0.201 16.7-0.129 10.9-0.264 21.8-0.404 32.7-4.4 0.0247-8.79 0.0428-13.2 0.0549-1.5 0.00504-2.99 0.0119-4.49 0.0205-2.15 0.0121-4.29 0.0178-6.44 0.0222-1.94 0.00786-1.94 0.00786-3.92 0.0159-2.96-0.114-2.96-0.114-3.96-1.11-0.111-3-0.157-5.97-0.161-8.97-0.00496-0.941-0.00993-1.88-0.015-2.85-0.0147-3.13-0.0214-6.26-0.0269-9.39-0.00575-2.17-0.0115-4.33-0.0173-6.5-0.0105-4.55-0.0164-9.1-0.0198-13.6-0.00549-5.84-0.0295-11.7-0.058-17.5-0.0186-4.48-0.0238-8.95-0.0254-13.4-0.00303-2.15-0.0111-4.3-0.0242-6.46-0.017-3.01-0.0152-6.01-0.00869-9.02-0.00921-0.895-0.0184-1.79-0.0279-2.71 0.00557-0.819 0.0111-1.64 0.0169-2.48-0.00147-0.711-0.00293-1.42-0.00444-2.16 1.05-5.33 5.09-5.25 9.75-5.21z" fill="#000100"/>
<path transform="translate(319,220)" d="m0 0c4.96 2.38 8.94 5.84 11 11 0.869 5.56 1.4 11.3-1.21 16.4-3.21 3.89-6.46 6.26-11.5 7.02-6.54 0.203-10.7-0.27-15.7-4.71-4.01-4.37-5.2-8.58-4.96-14.4 1.03-5.82 4.43-9.94 9.16-13.3 4.38-2.44 8.34-2.97 13.2-2z" fill="#000100"/>
<path transform="translate(1305,328)" d="m0 0c4.28 3.23 6.8 7.18 9 12-0.0933 4.57-1.49 8.2-4 12-3.69 3.25-6.65 4.98-11.6 5.06-5.85-1.84-10.1-4.84-13.4-10.1-1.31-4.35-1.23-7.13 0.625-11.2 4.48-8 10.8-9.99 19.4-7.81z" fill="#FAFDFF"/>
<path transform="translate(598,288)" d="m0 0c5.36 3.04 8.45 7.51 11 13 0.495 2.97 0.495 2.97 1 6h-39c-1-3-1-3-0.215-5.09 5.85-10.5 14.7-17.5 27.2-13.9z" fill="#FAFDFF"/>
<path transform="translate(969 314)" d="m0 0c1.01 6.45e-4 2.03 0.00129 3.07 0.00195 7.47 0.0451 7.47 0.0451 8.62 1.19 0.624 7.36-1.09 10.5-5.81 16.2-4.48 3.71-9.28 5.41-15.1 5.17-3.7-0.639-7.07-2.08-10.1-4.36-2.31-3.7-2.46-6.67-2-11 1.81-3.13 3.16-4.61 6.44-6.12 4.98-1.23 9.76-1.13 14.9-1.06z" fill="#8E58FE"/>
<path transform="translate(1231 314)" d="m0 0c1.46 0.0029 1.46 0.0029 2.95 0.00586 1.5 0.0184 1.5 0.0184 3.04 0.0371 1.02 6.45e-4 2.04 0.00129 3.09 0.00195 7.52 0.0451 7.52 0.0451 8.66 1.19 0.448 8.96 0.448 8.96-2 13-4.87 5.03-9.27 8.01-16.4 8.31-4.59-0.122-7.64-1-11.6-3.31-2.26-2.7-2.91-4.48-3.5-7.94 0.691-4.23 2.47-6.1 5.5-9.06 3.53-1.74 6.35-2.25 10.3-2.23z" fill="#8E58FE"/>
<path transform="translate(334,301)" d="m0 0h1v33c-3.42-5.13-3.18-10.3-3.19-16.3-0.0122-0.721-0.0245-1.44-0.0371-2.19-0.0138-5.15 0.81-9.55 2.22-14.5z" fill="#FCFDFF"/>
<path transform="translate(293,236)" d="m0 0h4c1.26 5.07 2.27 9.73 2 15-4.88-3.75-4.88-3.75-6-6-0.0695-1.54-0.0845-3.08-0.0625-4.62 0.00902-0.817 0.018-1.63 0.0273-2.48 0.0116-0.626 0.0232-1.25 0.0352-1.9z" fill="#FCFDFF"/>
<path transform="translate(633,280)" d="m0 0c2 1.62 2 1.62 4 4 0.25 3.25 0.25 3.25 0 6-3.54-1.68-4.79-2.49-6.31-6.19-0.227-0.928-0.454-1.86-0.688-2.81l2 1c0.33-0.66 0.66-1.32 1-2z" fill="#FCFDFF"/>
<path transform="translate(435,343)" d="m0 0 4 1c0.25 2.31 0.25 2.31 0 5-2 1.81-2 1.81-4 3-1.12-6.75-1.12-6.75 0-9z" fill="#FBFDFF"/>
</svg>
